<svg xmlns="http://www.w3.org/2000/svg" width="96" height="96" viewBox="0 0 96 96"><defs></defs>
    <defs><clipPath id="abdomen"><ellipse cx="48" cy="30" rx="14" ry="20"/></clipPath></defs>
    <ellipse cx="28" cy="38" rx="19" ry="9" transform="rotate(-25 28 38)" fill="#e6f6ff" opacity="0.75" stroke="#9ec9dd" stroke-width="2"/>
    <ellipse cx="68" cy="38" rx="19" ry="9" transform="rotate(25 68 38)" fill="#e6f6ff" opacity="0.75" stroke="#9ec9dd" stroke-width="2"/>
    <ellipse cx="30" cy="51" rx="14" ry="7" transform="rotate(-8 30 51)" fill="#e6f6ff" opacity="0.6" stroke="#9ec9dd" stroke-width="2"/>
    <ellipse cx="66" cy="51" rx="14" ry="7" transform="rotate(8 66 51)" fill="#e6f6ff" opacity="0.6" stroke="#9ec9dd" stroke-width="2"/>
    <path d="M44 12 L48 1 L52 12 Z" fill="#2a2a2a"/>
    <ellipse cx="48" cy="30" rx="14" ry="20" fill="#ffcf24"/>
    <g clip-path="url(#abdomen)"><rect x="30" y="16" width="36" height="6" fill="#2a2a2a"/><rect x="30" y="28" width="36" height="6" fill="#2a2a2a"/><rect x="30" y="40" width="36" height="5" fill="#2a2a2a"/></g>
    <ellipse cx="48" cy="30" rx="14" ry="20" fill="none" stroke="#1a1733" stroke-width="3"/>
    <ellipse cx="48" cy="54" rx="10" ry="8" fill="#2a2a2a" stroke="#1a1733" stroke-width="2.5"/>
    <path d="M44 74 Q39 82 33 84 M52 74 Q57 82 63 84" stroke="#1a1733" stroke-width="2.5" fill="none" stroke-linecap="round"/>
    <circle cx="48" cy="66" r="10" fill="#ffcf24" stroke="#1a1733" stroke-width="3"/>
    <ellipse cx="43" cy="66" rx="3.5" ry="4.5" fill="#1a1733"/><ellipse cx="53" cy="66" rx="3.5" ry="4.5" fill="#1a1733"/>
    <circle cx="42" cy="64.5" r="1.2" fill="#fff"/><circle cx="52" cy="64.5" r="1.2" fill="#fff"/>
    <path d="M45 72 L48 75 L51 72" stroke="#1a1733" stroke-width="2" fill="none" stroke-linecap="round"/></svg>